# xmcd CD database file
#
# Track frame offsets:
#	150
#	14361
#	32291
#	56162
#	69703
#	81837
#	105233
#	119156
#	130507
#	145508
#	158600
#	169133
#	181281
#	195557
#	209746
#	227991
#	242339
#	256212
#	268686
#	281805
#	295094
#
# Disc length: 4107 seconds
#
# Revision: 0
# Processed by: cddbd v1.4PL0 Copyright (c) Steve Scherf et al.
# Submitted via: CDex 1.50
#
DISCID=2b100915
DTITLE=Charlie Parker - The Gipsy
DYEAR=2002
DGENRE=Jazz
TTITLE0=A Night in Tunisia
TTITLE1=Dizzy Atmospheer
TTITLE2=Groovin' High
TTITLE3=Ornithology
TTITLE4=Yardbird Suite
TTITLE5=Moose the Mooche - Lullaby of Birdland
TTITLE6=The Gipsy
TTITLE7=Max Making Wax
TTITLE8=Lover Man
TTITLE9=Bepop
TTITLE10=Cool Blues
TTITLE11=Bird's Nest
TTITLE12=Dark Shadows
TTITLE13=This is Always
TTITLE14=Out of Nowhere
TTITLE15=My Old Flame
TTITLE16=Klact-Oveededs-Tene
TTITLE17=Don't Blame Me
TTITLE18=Bird Feathers
TTITLE19=Scrapple from the Apple
TTITLE20=Drifting on a Reed
EXTD=YEAR: 2002
EXTT0=
EXTT1=
EXTT2=
EXTT3=
EXTT4=
EXTT5=
EXTT6=
EXTT7=
EXTT8=
EXTT9=
EXTT10=
EXTT11=
EXTT12=
EXTT13=
EXTT14=
EXTT15=
EXTT16=
EXTT17=
EXTT18=
EXTT19=
EXTT20=
PLAYORDER=
